<svg version="1" xmlns="http://www.w3.org/2000/svg" width="933.333" height="933.333" viewBox="0 0 700.000000 700.000000"><path d="M374 57.2c-3 .5-9.3 2.7-14 5-15 7.2-26 20.6-30.4 36.9-2.3 8.7-1.5 24.8 1.7 33.2 8.6 22.3 28.7 36.8 51.6 37.1 10.6.1 15.6-.7 22.3-3.6 15.5-6.5 26.3-17.2 32-31.8 4.5-11.3 5.3-19.8 3.1-31.5-5.7-30.8-34.5-50.4-66.3-45.3zM179.3 113.6c-2.9.7-7.1 2.5-9.3 3.9-3.4 2.1-16.2 12.9-22 18.5-.9.8-5.4 4.9-10 9-11.3 10.1-18 16-28.1 25.1-4.6 4.2-11.4 10.3-15.1 13.5-11.1 9.9-13.4 14-12.5 23.3.7 8.6 5 14.5 12.8 18.1 5.4 2.4 11.7 2.6 13.3.4 1-1.4 4.2.9 23.2 16.1 12 9.7 23.3 18.8 24.9 20.2 1.7 1.3 4.5 3.6 6.4 5.1 11.3 9.1 32.1 25.8 34.7 28.1 1.7 1.4 4 3.3 5 4.1 5 3.9 12 9.5 12.4 10 .3.3 4.8 3.9 10 8s10.1 8.1 10.8 8.8c.8.7 3 2.5 5 4 2.1 1.5 3.9 2.9 4.2 3.3.3.3 8.8 7.2 19 15.4 22.9 18.4 28.4 22.9 29 23.5.3.3 2.5 2.1 5 4s4.7 3.7 5 4c.3.3 9.3 7.6 20 16.3 10.7 8.6 29.9 24 42.5 34.2 12.7 10.3 26.4 21.3 30.5 24.7 8.5 6.7 25.2 20.3 44.7 36.1l13.3 10.8-2.5 4c-1.4 2.1-7.8 11.9-14.3 21.7-6.5 9.7-14 21.1-16.7 25.2-2.7 4.1-14.5 22.1-26.4 40-11.8 17.9-21.9 34.2-22.5 36.2-1.3 4.7-.1 8.4 3.7 11.2l2.8 2.1h156.7c168.7 0 161.6.2 164.1-5.1 2.6-5.7.3-10.3-14.1-28.9-.4-.6-1.8-2.4-3.1-4-1.3-1.7-6.6-8.9-11.7-16-5.2-7.2-9.8-13.5-10.2-14-2.4-3-28.2-38-61.7-83.5-14-19-26.8-36-28.4-37.7-5.8-6.2-14.1-6.7-19.4-1.4-1.5 1.5-8.6 13.1-15.7 25.7-15.5 27.4-16.6 29.1-22.3 31.6l-4.4 1.9-3.7-2.8c-2-1.5-9.8-7.7-17.3-13.8-7.5-6-18.7-15.1-24.8-20-6.2-5-11.8-9.5-12.4-10-.7-.6-8.2-6.7-16.7-13.6l-15.5-12.5 1.7-4.5c1.3-3.2 1.6-6 1.2-10.3-.3-3.3-.7-6.2-.9-6.5-.1-.3-.6-2.9-.9-5.6-.3-2.8-.8-5.9-1-7-.2-1.1-.7-4-1-6.5-.3-2.5-.8-5.6-1-7-.2-1.4-.7-4.7-1.1-7.3-.4-2.7-.8-5.7-1-6.7-.2-.9-.6-3.5-.9-5.6-.3-2.2-.8-5-1.1-6.4-.2-1.4-.6-4.1-.9-6-1-7.6-1.9-13.6-2.2-15.5-.3-1.1-.9-5.2-1.5-9-.6-3.9-1.4-9.5-1.9-12.5-1.5-9.8-2.1-13.4-2.6-17-.2-1.9-.9-6-1.4-9-.5-3-1.2-7.5-1.5-10-.3-2.5-1-7-1.5-10s-1.2-7.3-1.5-9.5c-.3-2.3-.7-5-.9-6-.2-1.1-.9-5.6-1.5-10-2.4-16.3-6.8-26.8-16.3-38.2-10.3-12.4-29.8-26.3-52.3-37.3-15.3-7.5-35.5-17-36-17-.2 0-5.9-2.6-12.7-5.9-17.2-8.2-28.4-13.4-34.8-16.4-3-1.4-9.3-4.3-14-6.5-38-17.9-38.7-18.2-48.7-15.6zm29.4 81c14.6 10.5 21.7 16.1 21.5 17.1-.2.9-2.1 4.5-4.3 8-2.1 3.6-3.9 6.6-3.9 6.8 0 .2-2.8 5-6.1 10.7-3.4 5.6-7.1 11.9-8.2 13.8-5.8 10.5-7 12-8.1 11.2-2.8-2.2-16.2-12.7-16.6-13.2-.7-.7-6.7-5.6-28.8-23.4l-18.3-14.8 10.8-6.9c5.9-3.7 17.1-10.9 24.8-15.8 7.7-4.9 14.3-9 14.7-9 .3-.1 10.5 6.9 22.5 15.5zm128.8 106.2c1 3.1 1.9 6.4 2.1 7.2.2.8 2.6 8.9 5.5 18 2.8 9.1 6.3 20.8 7.9 26 1.5 5.2 5.3 17.5 8.3 27.2 3 9.8 5 17.5 4.4 17.1-1-.6-52.8-42.4-57.2-46.1-1.1-.9-3.2-2.6-4.6-3.7l-2.5-2 16.5-25.1c9.1-13.8 16.9-24.9 17.3-24.7.4.2 1.4 2.9 2.3 6.1z"/><path d="M177.9 302.2c-1.3 2.4-2.8 5.1-3.4 6-6.7 11.4-21.5 37-23.4 40.2-1.2 2.3-4.7 8.1-7.6 13.1-6.6 11.2-82 140.7-84.7 145.5-4.7 8.2-28.3 48.9-30.8 53-9.3 15.4-26.3 45.4-27 48-1.4 4.8-.5 14.1 1.8 19.3 6.8 15.2 26.9 20.9 40.8 11.5 1.9-1.3 11.7-12.4 21.6-24.8 10-12.4 18.5-22.7 18.8-23 .3-.3 4.1-5 8.5-10.5s8.2-10.2 8.5-10.5c.3-.3 2.3-2.8 4.5-5.5 2.2-2.8 4.7-5.9 5.7-7 .9-1.1 14.4-17.8 30-37 15.6-19.3 37-45.7 47.7-58.8l19.2-23.8 3.2 2c1.8 1 13.3 8.1 25.7 15.6 12.4 7.6 23.9 14.6 25.5 15.5 17.3 10.1 21 12.8 20.7 14.9-.2 1.2-3.9 14.7-8.4 29.9-4.4 15.2-8.6 30.2-9.4 33.2-.8 3-5.1 18.1-9.5 33.5-4.5 15.4-8.3 30.2-8.6 33-1.4 14.2 10.8 27.5 25.7 28 6.7.3 12-1.5 17.6-5.8 5.3-4 6.3-6 17.8-34.7 5.2-12.9 16.7-41.5 25.6-63.5 24.4-60.2 26-65.5 23.4-78.4-2.5-11.9-7.6-18.8-25.8-34.6-3.8-3.3-7.6-6.7-8.5-7.5-.9-.9-5.4-4.9-10.1-9-4.7-4.1-9.1-8.1-9.8-8.7-.7-.7-6.5-5.9-12.8-11.4-6.3-5.6-11.4-10.8-11.4-11.5 0-1-5.7-6.1-17-15.1-.8-.6-5.5-4.5-10.5-8.5-4.9-4.1-17.1-13.9-27-21.8-9.9-7.9-18.8-15.1-19.7-15.9-.9-.9-2.3-2.1-3-2.6-.7-.6-5.6-4.5-10.9-8.8-5.4-4.2-9.9-7.7-10.1-7.7-.2 0-1.5 1.9-2.9 4.2z"/></svg>